#!OML:ASF H:\ManfredObstacles\Project 1\Capture day 2\Session 1\male.ASF
:FULLY-SPECIFIED
:DEGREES
211
root 1.60556 7.25723 12.4733 -134.772 0.0388119 -180.128
lowerback 49.6702 -4.08282 8.65138
upperback 8.66825 -5.56139 -9.01678
thorax -12.3316 -3.6716 -11.3356
lowerneck -27.364 4.02288 12.0311
upperneck 15.6658 -0.282349 2.91008
head 9.46478 0.820808 -0.926129
rclavicle 2.66371e-014 4.39749e-014
rhumerus 29.208 9.82148 -69.8617
rradius 83.9524
rwrist 33.112
rhand -35.9852 -10.3471
rfingers 7.12502
rthumb -9.09557 -40.131
lclavicle 2.66371e-014 4.39749e-014
lhumerus 16.6839 -13.9523 40.0569
lradius 85.3273
lwrist -28.9118
lhand -41.078 26.3967
lfingers 7.12502
lthumb -14.0068 55.9048
rfemur -96.6478 -11.1677 29.5949
rtibia 152.304
rfoot 10.7342 -11.1837
rtoes -27.4822
lfemur -84.6896 12.1025 -27.3183
ltibia 150.856
lfoot 5.90431 15.1575
ltoes 5.32148
212
root 1.60774 7.23454 12.3525 -134.484 -0.0396546 -180.208
lowerback 49.6257 -4.56061 9.11279
upperback 8.46059 -5.92332 -9.42834
thorax -12.7395 -3.84659 -11.8586
lowerneck -27.1087 4.08973 12.2249
upperneck 15.7528 -0.329559 3.20384
head 9.46039 0.837391 -0.862128
rclavicle 0 -3.0998e-014
rhumerus 27.8307 10.5435 -70.8694
rradius 84.6598
rwrist 33.5315
rhand -36.3389 -10.2711
rfingers 7.12502
rthumb -9.43679 -40.0398
lclavicle 0 -3.0998e-014
lhumerus 15.2826 -14.721 39.5643
lradius 85.9096
lwrist -28.8922
lhand -41.4199 26.5559
lfingers 7.12502
lthumb -14.3362 56.041
rfemur -96.7104 -11.5344 29.5893
rtibia 152.252
rfoot 12.0663 -10.1336
rtoes -26.7884
lfemur -84.181 12.0577 -27.1395
ltibia 150.64
lfoot 6.00548 14.6263
ltoes 5.64619
213
root 1.6097 7.21019 12.2327 -134.181 -0.111641 -180.287
lowerback 49.4343 -4.85014 9.40259
upperback 8.33622 -6.12785 -9.6341
thorax -12.9544 -3.94532 -12.1431
lowerneck -26.8451 4.12114 12.3764
upperneck 15.7446 -0.344972 3.3266
head 9.41779 0.844976 -0.847364
rclavicle 1.98785e-015 -1.18028e-016
rhumerus 26.5734 11.2078 -71.5845
rradius 85.3489
rwrist 33.9186
rhand -36.6895 -10.1986
rfingers 7.12502
rthumb -9.77513 -39.9518
lclavicle 1.98785e-015 -1.18028e-016
lhumerus 13.9653 -15.379 39.4151
lradius 86.4676
lwrist -29.0402
lhand -41.6639 26.7728
lfingers 7.12502
lthumb -14.5713 56.241
rfemur -96.7707 -11.8702 29.6193
rtibia 152.178
rfoot 13.4522 -9.16661
rtoes -25.7459
lfemur -83.6219 12.0251 -26.9427
ltibia 150.404
lfoot 6.01059 14.1876
ltoes 5.90225
214
root 1.61104 7.18387 12.1139 -133.863 -0.172638 -180.359
lowerback 49.1784 -5.0498 9.59982
upperback 8.23731 -6.25903 -9.73669
thorax -13.091 -4.00782 -12.3014
lowerneck -26.6325 4.13918 12.5147
upperneck 15.749 -0.345609 3.33393
head 9.3863 0.849481 -0.868334
rclavicle 6.44062e-014 8.82293e-014
rhumerus 25.3635 11.872 -72.1637
rradius 86.0239
rwrist 34.2911
rhand -37.0289 -10.128
rfingers 7.12502
rthumb -10.1025 -39.8655
lclavicle 6.44062e-014 8.82293e-014
lhumerus 12.6605 -15.9582 39.4578
lradius 86.9925
lwrist -29.3777
lhand -41.8234 27.1156
lfingers 7.12502
lthumb -14.725 56.5726
rfemur -96.8381 -12.1744 29.6802
rtibia 152.068
rfoot 14.9529 -8.26684
rtoes -24.5926
lfemur -82.9905 12.011 -26.7271
ltibia 150.128
lfoot 5.94563 13.8289
ltoes 6.10725
215
root 1.61166 7.15616 11.9963 -133.521 -0.221295 -180.437
lowerback 48.897 -5.21264 9.73265
upperback 8.13385 -6.36948 -9.7862
thorax -13.2118 -4.05934 -12.3774
lowerneck -26.4649 4.16752 12.6329
upperneck 15.7981 -0.318291 3.2863
head 9.37826 0.863914 -0.900598
rclavicle 8.54774e-014 5.35663e-014
rhumerus 24.1708 12.5785 -72.6879
rradius 86.6796
rwrist 34.6361
rhand -37.3709 -10.0419
rfingers 7.12502
rthumb -10.4325 -39.7631
lclavicle 8.54774e-014 5.35663e-014
lhumerus 11.3189 -16.4693 39.6313
lradius 87.4875
lwrist -29.7947
lhand -41.9368 27.5274
lfingers 7.12502
lthumb -14.8343 56.9764
rfemur -96.9597 -12.4564 29.7678
rtibia 151.925
rfoot 16.6234 -7.39186
rtoes -23.5867
lfemur -82.3182 11.999 -26.5227
ltibia 149.789
lfoot 5.91553 13.4924
ltoes 6.28597
216
root 1.61161 7.12805 11.8808 -133.143 -0.277036 -180.533
lowerback 48.6105 -5.37715 9.83436
upperback 8.00377 -6.48651 -9.80333
thorax -13.3572 -4.11333 -12.3969
lowerneck -26.3556 4.20674 12.7261
upperneck 15.9095 -0.272472 3.21151
head 9.40234 0.887442 -0.934948
rclavicle 8.74653e-015 -8.13899e-014
rhumerus 22.982 13.3345 -73.1859
rradius 87.3033
rwrist 34.9761
rhand -37.7099 -9.94013
rfingers 7.12502
rthumb -10.7595 -39.6446
lclavicle 8.74653e-015 -8.13899e-014
lhumerus 9.92458 -16.9323 39.8877
lradius 87.9463
lwrist -30.1961
lhand -42.0551 27.9564
lfingers 7.12502
lthumb -14.9483 57.3969
rfemur -97.1732 -12.7415 29.8889
rtibia 151.749
rfoot 18.4599 -6.5182
rtoes -22.8501
lfemur -81.6716 11.95 -26.3601
ltibia 149.391
lfoot 6.01235 13.1429
ltoes 6.38655
217
root 1.6116 7.10198 11.7678 -132.713 -0.353676 -180.687
lowerback 48.2567 -5.60838 9.91409
upperback 7.88317 -6.7067 -9.83334
thorax -13.5087 -4.21283 -12.3678
lowerneck -26.266 4.31111 12.7934
upperneck 16.0391 -0.143329 3.1549
head 9.44027 0.949785 -0.945885
rclavicle -2.10712e-014 -2.03661e-014
rhumerus 21.8904 14.2298 -73.7285
rradius 87.869
rwrist 35.3258
rhand -38.0479 -9.82767
rfingers 7.12502
rthumb -11.0854 -39.5149
lclavicle -2.10712e-014 -2.03661e-014
lhumerus 8.42722 -17.2615 40.1159
lradius 88.3766
lwrist -30.3773
lhand -42.2821 28.2856
lfingers 7.12502
lthumb -15.167 57.7097
rfemur -97.5153 -13.0725 30.0238
rtibia 151.543
rfoot 20.4099 -5.66664
rtoes -22.291
lfemur -81.1605 11.7983 -26.3168
ltibia 148.954
lfoot 6.33626 12.7722
ltoes 6.39517
218
root 1.61312 7.08031 11.6567 -132.23 -0.460403 -180.924
lowerback 47.9152 -5.8326 9.94696
upperback 7.71906 -6.92061 -9.81239
thorax -13.6988 -4.30742 -12.2588
lowerneck -26.2049 4.39902 12.833
upperneck 16.1823 -0.0250694 3.08356
head 9.48689 1.00579 -0.959093
rclavicle -3.18055e-015 2.64601e-014
rhumerus 20.7782 15.0926 -74.1895
rradius 88.3958
rwrist 35.7193
rhand -38.3679 -9.72496
rfingers 7.12502
rthumb -11.3941 -39.3954
lclavicle -3.18055e-015 2.64601e-014
lhumerus 6.95145 -17.6182 40.4281
lradius 88.7781
lwrist -30.2215
lhand -42.6933 28.4185
lfingers 7.12502
lthumb -15.563 57.8123
rfemur -97.975 -13.4717 30.1641
rtibia 151.313
rfoot 22.396 -4.9143
rtoes -21.792
lfemur -80.835 11.5082 -26.4218
ltibia 148.517
lfoot 6.88205 12.4214
ltoes 6.26736
219
root 1.61815 7.06483 11.5471 -131.705 -0.61619 -181.27
lowerback 47.6074 -6.03329 9.9294
upperback 7.52261 -7.10624 -9.72237
thorax -13.9075 -4.3854 -12.0578
lowerneck -26.184 4.44595 12.8577
upperneck 16.3009 0.0525697 2.97797
head 9.52861 1.03886 -0.987956
rclavicle 8.82604e-014 3.47671e-014
rhumerus 19.6479 15.859 -74.5279
rradius 88.8874
rwrist 36.1275
rhand -38.6929 -9.62334
rfingers 7.12502
rthumb -11.7075 -39.2762
lclavicle 8.82604e-014 3.47671e-014
lhumerus 5.59784 -18.0099 40.8164
lradius 89.1734
lwrist -29.7295
lhand -43.2815 28.337
lfingers 7.12502
lthumb -16.1294 57.6858
rfemur -98.4698 -13.9748 30.2886
rtibia 151.056
rfoot 24.2712 -4.30807
rtoes -21.3126
lfemur -80.7357 11.0476 -26.6752
ltibia 148.127
lfoot 7.57904 12.1336
ltoes 6.17284
220
root 1.62822 7.0564 11.4378 -131.174 -0.837381 -181.73
lowerback 47.372 -6.20382 9.86983
upperback 7.30881 -7.25322 -9.56598
thorax -14.1214 -4.44157 -11.7766
lowerneck -26.2325 4.4423 12.8886
upperneck 16.3878 0.0608145 2.84855
head 9.56676 1.03779 -1.03629
rclavicle -2.70347e-014 -8.62249e-014
rhumerus 18.4952 16.4632 -74.7502
rradius 89.3678
rwrist 36.5497
rhand -39.0133 -9.52844
rfingers 7.12502
rthumb -12.0165 -39.1635
lclavicle -2.70347e-014 -8.62249e-014
lhumerus 4.46081 -18.3932 41.2513
lradius 89.6108
lwrist -29.1445
lhand -43.8662 28.1348
lfingers 7.12502
lthumb -16.6924 57.4371
rfemur -98.8727 -14.6045 30.3808
rtibia 150.763
rfoot 25.8812 -3.8712
rtoes -20.8113
lfemur -80.8072 10.4213 -27.0213
ltibia 147.796
lfoot 8.31292 11.9525
ltoes 6.21915
